<svg xmlns="http://www.w3.org/2000/svg" xmlns:xlink="http://www.w3.org/1999/xlink" width="48" zoomAndPan="magnify" viewBox="0 0 36 36.000001" height="48" preserveAspectRatio="xMidYMid meet" version="1.2"><defs><clipPath id="0687c4dbbb"><path d="M 0.488281 0 L 35.511719 0 L 35.511719 35.027344 L 0.488281 35.027344 Z M 0.488281 0 "/></clipPath></defs><g id="841fb75cf1"><g clip-rule="nonzero" clip-path="url(#0687c4dbbb)"><path style=" stroke:none;fill-rule:nonzero;fill:#ffffff;fill-opacity:1;" d="M 0.488281 0 L 35.511719 0 L 35.511719 35.027344 L 0.488281 35.027344 Z M 0.488281 0 "/><path style=" stroke:none;fill-rule:nonzero;fill:#0091c9;fill-opacity:1;" d="M 0.488281 0 L 35.511719 0 L 35.511719 35.027344 L 0.488281 35.027344 Z M 0.488281 0 "/></g><g style="fill:#ffffff;fill-opacity:1;"><g transform="translate(6.213253, 23.716218)"><path style="stroke:none" d="M 1.671875 -14.984375 L 10.140625 -14.984375 L 10.140625 -11.921875 L 4.9375 -11.921875 L 4.9375 -8.53125 L 8.703125 -8.53125 L 8.703125 -5.453125 L 4.9375 -5.453125 L 4.9375 0 L 1.671875 0 Z M 1.671875 -14.984375 "/></g></g><g style="fill:#ffffff;fill-opacity:1;"><g transform="translate(18.293912, 23.716218)"><path style="stroke:none" d="M 1.671875 -14.984375 L 10.25 -14.984375 L 10.25 -11.921875 L 4.9375 -11.921875 L 4.9375 -9.171875 L 8.8125 -9.171875 L 8.8125 -6.109375 L 4.9375 -6.109375 L 4.9375 -3.0625 L 10.359375 -3.0625 L 10.359375 0 L 1.671875 0 Z M 1.671875 -14.984375 "/></g></g></g></svg>