<svg xmlns="http://www.w3.org/2000/svg" xmlns:xlink="http://www.w3.org/1999/xlink" width="500" zoomAndPan="magnify" viewBox="0 0 375 112.499997" height="150" preserveAspectRatio="xMidYMid meet" version="1.2"><defs><clipPath id="65b12e49cd"><path d="M 0.828125 0 L 374.167969 0 L 374.167969 112.003906 L 0.828125 112.003906 Z M 0.828125 0 "/></clipPath></defs><g id="d24b28f81d"><g clip-rule="nonzero" clip-path="url(#65b12e49cd)"><path style=" stroke:none;fill-rule:nonzero;fill:#ffffff;fill-opacity:1;" d="M 0.828125 0 L 374.171875 0 L 374.171875 112.003906 L 0.828125 112.003906 Z M 0.828125 0 "/><path style=" stroke:none;fill-rule:nonzero;fill:#0091c9;fill-opacity:1;" d="M 0.828125 0 L 374.171875 0 L 374.171875 112.003906 L 0.828125 112.003906 Z M 0.828125 0 "/></g><g style="fill:#ffffff;fill-opacity:1;"><g transform="translate(62.150884, 69.441367)"><path style="stroke:none" d="M 3.5625 -31.84375 L 21.53125 -31.84375 L 21.53125 -25.328125 L 10.5 -25.328125 L 10.5 -18.109375 L 18.484375 -18.109375 L 18.484375 -11.59375 L 10.5 -11.59375 L 10.5 0 L 3.5625 0 Z M 3.5625 -31.84375 "/></g></g><g style="fill:#ffffff;fill-opacity:1;"><g transform="translate(87.81204, 69.441367)"><path style="stroke:none" d="M 3.5625 -31.84375 L 10.5 -31.84375 L 10.5 -6.515625 L 21.53125 -6.515625 L 21.53125 0 L 3.5625 0 Z M 3.5625 -31.84375 "/></g></g><g style="fill:#ffffff;fill-opacity:1;"><g transform="translate(113.473196, 69.441367)"><path style="stroke:none" d="M 3.5625 -31.84375 L 21.765625 -31.84375 L 21.765625 -25.328125 L 10.5 -25.328125 L 10.5 -19.484375 L 18.734375 -19.484375 L 18.734375 -12.96875 L 10.5 -12.96875 L 10.5 -6.515625 L 22 -6.515625 L 22 0 L 3.5625 0 Z M 3.5625 -31.84375 "/></g></g><g style="fill:#ffffff;fill-opacity:1;"><g transform="translate(140.559935, 69.441367)"><path style="stroke:none" d="M 9.75 -15.6875 L 1.140625 -31.84375 L 9.078125 -31.84375 L 14.5 -21.296875 L 20.0625 -31.84375 L 27.609375 -31.84375 L 18.875 -16.34375 L 27.8125 0 L 19.875 0 L 14.109375 -10.796875 L 8.265625 0 L 0.71875 0 Z M 9.75 -15.6875 "/></g></g><g style="fill:#ffffff;fill-opacity:1;"><g transform="translate(171.784708, 69.441367)"><path style="stroke:none" d=""/></g></g><g style="fill:#ffffff;fill-opacity:1;"><g transform="translate(184.948306, 69.441367)"><path style="stroke:none" d=""/></g></g><g style="fill:#ffffff;fill-opacity:1;"><g transform="translate(198.116897, 69.441367)"><path style="stroke:none" d="M 3.5625 -31.84375 L 21.765625 -31.84375 L 21.765625 -25.328125 L 10.5 -25.328125 L 10.5 -19.484375 L 18.734375 -19.484375 L 18.734375 -12.96875 L 10.5 -12.96875 L 10.5 -6.515625 L 22 -6.515625 L 22 0 L 3.5625 0 Z M 3.5625 -31.84375 "/></g></g><g style="fill:#ffffff;fill-opacity:1;"><g transform="translate(225.203636, 69.441367)"><path style="stroke:none" d="M 0.234375 -31.84375 L 7.46875 -31.84375 L 14.40625 -12.875 L 21.4375 -31.84375 L 28.5625 -31.84375 L 16.203125 0.578125 L 12.546875 0.578125 Z M 0.234375 -31.84375 "/></g></g><g style="fill:#ffffff;fill-opacity:1;"><g transform="translate(256.709668, 69.441367)"><path style="stroke:none" d="M 13.03125 -32.421875 L 17.4375 -32.421875 L 30 0 L 22.671875 0 L 20.71875 -5.375 L 9.75 -5.375 L 7.84375 0 L 0.46875 0 Z M 18.578125 -11.359375 L 15.25 -20.71875 L 11.890625 -11.359375 Z M 18.578125 -11.359375 "/></g></g><g style="fill:#ffffff;fill-opacity:1;"><g transform="translate(289.878871, 69.441367)"><path style="stroke:none" d="M 3.5625 -31.84375 L 10.5 -31.84375 L 10.5 -6.515625 L 21.53125 -6.515625 L 21.53125 0 L 3.5625 0 Z M 3.5625 -31.84375 "/></g></g></g></svg>